<svg xmlns="http://www.w3.org/2000/svg" xmlns:xlink="http://www.w3.org/1999/xlink" preserveAspectRatio="xMidYMid" width="28" height="28" viewBox="0 0 28 28">
  <defs>
    <style>
      .cls-1 {
        fill: #eb281f;
      }

      .cls-1, .cls-2 {
        fill-rule: evenodd;
      }

      .cls-2 {
        fill: #fff;
      }
    </style>
  </defs>
  <path d="M27.684,13.304 L24.929,10.456 L25.484,6.532 C25.560,5.998 25.198,5.501 24.667,5.408 L20.764,4.723 L18.906,1.222 C18.654,0.746 18.069,0.556 17.585,0.793 L14.024,2.534 L10.464,0.793 C9.979,0.556 9.395,0.746 9.142,1.222 L7.285,4.724 L3.381,5.408 C2.850,5.501 2.489,5.998 2.564,6.532 L3.119,10.456 L0.364,13.304 C-0.011,13.691 -0.011,14.306 0.364,14.694 L3.119,17.542 L2.564,21.466 C2.489,22.000 2.850,22.497 3.381,22.590 L7.284,23.275 L9.142,26.776 C9.395,27.252 9.979,27.441 10.463,27.205 L14.024,25.465 L17.585,27.205 C17.726,27.274 17.875,27.307 18.023,27.307 C18.381,27.307 18.727,27.113 18.906,26.776 L20.764,23.275 L24.667,22.590 C25.198,22.497 25.560,22.000 25.484,21.466 L24.929,17.542 L27.684,14.694 C28.059,14.306 28.059,13.691 27.684,13.304 Z" class="cls-1"/>
  <path d="M26.183,14.617 L23.731,17.153 L24.225,20.645 C24.292,21.120 23.971,21.563 23.498,21.645 L20.024,22.255 L18.371,25.370 C18.211,25.670 17.904,25.843 17.585,25.843 C17.454,25.843 17.320,25.814 17.195,25.753 L14.026,24.204 L10.857,25.753 C10.426,25.963 9.906,25.794 9.681,25.370 L8.028,22.255 L4.553,21.645 C4.081,21.562 3.759,21.120 3.827,20.645 L4.321,17.153 L1.868,14.617 C1.535,14.273 1.535,13.725 1.868,13.381 L4.321,10.846 L3.827,7.354 C3.759,6.878 4.081,6.436 4.554,6.353 L8.028,5.744 L9.681,2.628 C9.906,2.204 10.426,2.035 10.857,2.246 L14.026,3.795 L17.195,2.246 C17.626,2.035 18.146,2.204 18.371,2.628 L20.024,5.744 L23.498,6.353 C23.971,6.436 24.292,6.878 24.225,7.354 L23.731,10.846 L26.183,13.381 C26.517,13.725 26.517,14.273 26.183,14.617 ZM22.150,11.771 C21.960,11.573 21.870,11.299 21.909,11.028 L22.343,7.956 L19.289,7.421 C19.018,7.374 18.785,7.204 18.657,6.962 L17.203,4.222 L14.416,5.584 C14.170,5.705 13.882,5.705 13.635,5.584 L10.849,4.222 L9.395,6.962 C9.266,7.204 9.033,7.374 8.763,7.421 L5.708,7.956 L6.143,11.028 C6.181,11.299 6.092,11.573 5.901,11.770 L3.745,13.999 L5.901,16.228 C6.092,16.425 6.181,16.699 6.143,16.971 L5.708,20.042 L8.763,20.578 C9.033,20.626 9.266,20.795 9.395,21.037 L10.849,23.777 L13.635,22.415 C13.758,22.355 13.892,22.325 14.026,22.325 C14.159,22.325 14.293,22.355 14.416,22.415 L17.203,23.777 L18.657,21.037 C18.785,20.795 19.019,20.626 19.289,20.578 L22.344,20.042 L21.909,16.971 C21.871,16.699 21.960,16.425 22.150,16.228 L24.307,13.999 L22.150,11.771 ZM16.850,18.977 C15.663,18.977 14.697,18.011 14.697,16.823 C14.697,15.636 15.663,14.670 16.850,14.670 C18.038,14.670 19.004,15.636 19.004,16.823 C19.004,18.011 18.038,18.977 16.850,18.977 ZM16.850,16.093 C16.448,16.093 16.120,16.421 16.120,16.824 C16.120,17.227 16.448,17.555 16.850,17.555 C17.253,17.555 17.581,17.227 17.581,16.824 C17.581,16.421 17.253,16.093 16.850,16.093 ZM10.737,18.294 C10.598,18.433 10.415,18.503 10.233,18.503 C10.051,18.503 9.869,18.433 9.730,18.294 C9.453,18.017 9.453,17.566 9.730,17.288 L17.315,9.704 C17.593,9.426 18.044,9.426 18.321,9.704 C18.599,9.982 18.599,10.432 18.322,10.710 L10.737,18.294 ZM11.201,13.328 C10.014,13.328 9.048,12.362 9.048,11.175 C9.048,9.987 10.014,9.021 11.201,9.021 C12.389,9.021 13.355,9.987 13.355,11.175 C13.355,12.362 12.389,13.328 11.201,13.328 ZM11.201,10.444 C10.798,10.444 10.471,10.772 10.471,11.175 C10.471,11.577 10.798,11.905 11.201,11.905 C11.604,11.905 11.932,11.577 11.932,11.175 C11.932,10.772 11.604,10.444 11.201,10.444 Z" class="cls-2"/>
</svg>
